<svg width="24" height="24" viewBox="0 0 24 24" fill="none" xmlns="http://www.w3.org/2000/svg">
<path d="M9.1664 3.84744L4.42629 7.35425C3.15183 8.29711 2.40002 9.7885 2.40002 11.3738V17.8C2.40002 19.4568 3.74317 20.8 5.40002 20.8H7.75322C8.85779 20.8 9.75322 19.9045 9.75322 18.8V15.1444C9.75322 13.7907 10.8506 12.6933 12.2043 12.6933C13.558 12.6933 14.6553 13.7907 14.6553 15.1444V18.8C14.6553 19.9045 15.5508 20.8 16.6553 20.8H18.6C20.2569 20.8 21.6 19.4568 21.6 17.8V11.31C21.6 9.76065 20.8818 8.29886 19.6554 7.35211L15.1955 3.90916C13.4257 2.54286 10.9639 2.51766 9.1664 3.84744Z" fill="#9E9E9E"/>
</svg>
