<svg width="22" height="20" viewBox="0 0 22 20" fill="none" xmlns="http://www.w3.org/2000/svg">
<g id="material-symbols:verified">
<path id="Vector" d="M4.36078 5.56498L3.37101 5.6586C3.29977 4.90548 3.80048 4.21717 4.53895 4.05306L6.38592 3.64262L7.36669 1.99081C7.75047 1.34444 8.55343 1.08197 9.2449 1.37686L11 2.12536L12.7551 1.37686C13.4466 1.08197 14.2495 1.34444 14.6333 1.99082L15.6141 3.64262L17.461 4.05306C18.1995 4.21717 18.7002 4.90548 18.629 5.6586L18.4486 7.56553L19.7145 9.01224L18.9619 9.67075L19.7145 9.01225C20.2093 9.57778 20.2093 10.4222 19.7145 10.9878M4.36078 5.56498L19.7145 10.9878M4.36078 5.56498L3.37101 5.6586L3.5514 7.56553M4.36078 5.56498L3.5514 7.56553M19.7145 10.9878L18.4486 12.4345M19.7145 10.9878L18.4486 12.4345M9.2449 18.6231C8.55343 18.918 7.75047 18.6556 7.36668 18.0092L6.38592 16.3574L4.53895 15.9469C3.80048 15.7828 3.29977 15.0945 3.37101 14.3414L3.5514 12.4345L2.28552 10.9878C1.79067 10.4222 1.79067 9.57778 2.28552 9.01224M9.2449 18.6231L2.28552 9.01224M9.2449 18.6231L11 17.8746L12.7551 18.6231C13.4466 18.918 14.2495 18.6556 14.6333 18.0092L15.6141 16.3574L17.461 15.9469C18.1995 15.7828 18.7002 15.0945 18.629 14.3414L18.4486 12.4345M9.2449 18.6231L18.4486 12.4345M2.28552 9.01224L3.5514 7.56553M2.28552 9.01224L3.5514 7.56553" fill="#3897F0" stroke="white" stroke-width="2" stroke-linejoin="round"/>
</g>
</svg>
