<svg width="24" height="24" viewBox="0 0 24 24" fill="none" xmlns="http://www.w3.org/2000/svg">
<path d="M9.16628 3.84747L4.42617 7.35428C3.15171 8.29714 2.3999 9.78853 2.3999 11.3738V17.8C2.3999 19.4569 3.74305 20.8 5.3999 20.8H7.75309C8.85766 20.8 9.75309 19.9046 9.75309 18.8V15.1444C9.75309 13.7907 10.8505 12.6933 12.2042 12.6933C13.5578 12.6933 14.6552 13.7907 14.6552 15.1444V18.8C14.6552 19.9046 15.5507 20.8 16.6552 20.8H18.5999C20.2568 20.8 21.5999 19.4569 21.5999 17.8V11.31C21.5999 9.76068 20.8817 8.29889 19.6553 7.35214L15.1954 3.90919C13.4255 2.54289 10.9637 2.51769 9.16628 3.84747Z" fill="#9E9E9E"/>
</svg>
